<svg width="46" height="32" viewBox="0 0 46 32" fill="none" xmlns="http://www.w3.org/2000/svg">
<path fill-rule="evenodd" clip-rule="evenodd" d="M22.9775 7C22.9775 10.735 19.985 13.75 16.25 13.75C12.515 13.75 9.5 10.735 9.5 7C9.5 3.265 12.515 0.25 16.25 0.25C19.985 0.25 22.9775 3.265 22.9775 7ZM38.7275 10.375C38.7275 13.48 36.23 16 33.125 16C30.02 16 27.5 13.48 27.5 10.375C27.5 7.27 30.02 4.75 33.125 4.75C36.23 4.75 38.7275 7.27 38.7275 10.375ZM33.125 20.5C29.0075 20.5 20.75 22.57 20.75 26.6875V31.75H45.5V26.6875C45.5 22.57 37.2425 20.5 33.125 20.5ZM0.5 26.125C0.5 20.8825 11.0075 18.25 16.25 18.25C17.735 18.25 19.625 18.475 21.5825 18.88C16.9925 21.4225 16.25 24.775 16.25 26.6875V31.75H0.5V26.125Z" fill="#9090E7"/>
</svg>
