<svg width="22" height="22" viewBox="0 0 22 22" fill="none" xmlns="http://www.w3.org/2000/svg">
<path id="In" fill-rule="evenodd" clip-rule="evenodd" d="M3.22266 0H18.7773C20.5542 0 22 1.44583 22 3.22266V18.7773C22 20.5542 20.5542 22 18.7773 22H3.22266C1.44583 22 0 20.5542 0 18.7773V3.22266C0 1.44583 1.44583 0 3.22266 0ZM5.19922 17.4453H7.77734V8.42188H5.19922V17.4453ZM7.77734 7.13281H5.19922V4.55469H7.77734V7.13281ZM14.2227 17.4453H16.8008V11.8459C16.8008 9.99225 15.3266 8.42372 13.5781 8.42188C12.9795 8.42188 12.5841 8.56913 12.1511 8.73035C11.9914 8.78983 11.8265 8.8512 11.6445 8.90779V8.42188H9.06641V17.4453H11.6445V12.2891C11.6445 11.5784 12.2229 11 12.9336 11C13.6443 11 14.2227 11.5784 14.2227 12.2891V17.4453Z" fill="#0077B5"/>
</svg>
