<svg width="161" height="44" viewBox="0 0 161 44" fill="none" xmlns="http://www.w3.org/2000/svg">
<g id="Logo_Fixed Header">
<g id="Group 9">
<g id="Group 8">
<rect id="Rectangle" x="0.297302" y="0.297302" width="13.0811" height="27.9459" fill="#B5C5FF"/>
<rect id="Rectangle Copy 14" x="40.1351" y="43.7027" width="13.0811" height="27.9459" transform="rotate(-180 40.1351 43.7027)" fill="#6161E8"/>
<rect id="Rectangle Copy 13" x="0.297302" y="28.2432" width="13.0811" height="14.8649" fill="#6161E8"/>
<rect id="Rectangle Copy 15" x="40.1351" y="15.7568" width="13.0811" height="14.8649" transform="rotate(-180 40.1351 15.7568)" fill="#B5EDE9"/>
<rect id="Rectangle_2" x="13.3784" y="14.5676" width="13.6757" height="13.6757" fill="#8FEEE7"/>
</g>
</g>
<path id="HARDRIGTH" fill-rule="evenodd" clip-rule="evenodd" d="M126.984 22.432C126.984 25.824 129.592 28.224 133.08 28.224C135.112 28.224 136.76 27.472 137.944 26.496V21.456H132.792V23.728H135V25.088C134.536 25.392 133.96 25.552 133.208 25.552C131.432 25.552 130.168 24.256 130.168 22.448V22.416C130.168 20.704 131.416 19.344 133.032 19.344C134.136 19.344 134.936 19.728 135.736 20.4L137.56 18.208C136.376 17.184 134.984 16.576 133.016 16.576C129.544 16.576 126.984 19.136 126.984 22.4V22.432ZM73.272 28L78.04 16.72H81.032L85.8 28H82.472L81.656 26H77.336L76.536 28H73.272ZM61.992 28V16.8H65.096V20.992H69.08V16.8H72.184V28H69.08V23.744H65.096V28H61.992ZM80.76 23.584H78.248L79.512 20.4L80.76 23.584ZM86.888 28V16.8H92.184C93.896 16.8 95.08 17.248 95.832 18.016C96.488 18.656 96.824 19.52 96.824 20.624V20.656C96.824 22.368 95.912 23.504 94.52 24.096L97.192 28H93.608L91.352 24.608H89.992V28H86.888ZM92.04 22.176H89.992V19.488H92.024C93.064 19.488 93.704 19.936 93.704 20.816V20.848C93.704 21.664 93.096 22.176 92.04 22.176ZM98.392 28V16.8H102.712C106.712 16.8 109.032 19.104 109.032 22.336V22.368C109.032 25.6 106.68 28 102.648 28H98.392ZM102.76 25.248H101.496V19.552H102.76C104.616 19.552 105.848 20.592 105.848 22.384V22.416C105.848 24.224 104.616 25.248 102.76 25.248ZM110.632 28V16.8H115.928C117.64 16.8 118.824 17.248 119.576 18.016C120.232 18.656 120.568 19.52 120.568 20.624V20.656C120.568 22.368 119.656 23.504 118.264 24.096L120.936 28H117.352L115.096 24.608H113.736V28H110.632ZM115.784 22.176H113.736V19.488H115.768C116.808 19.488 117.448 19.936 117.448 20.816V20.848C117.448 21.664 116.84 22.176 115.784 22.176ZM122.2 28V16.8H125.32V28H122.2ZM142.248 28V19.52H138.888V16.8H148.712V19.52H145.352V28H142.248ZM153.176 16.8H150.072V28H153.176V23.744H157.16V28H160.264V16.8H157.16V20.992H153.176V16.8Z" fill="#324063"/>
</g>
</svg>
