<svg width="22" height="22" viewBox="0 0 22 22" fill="none" xmlns="http://www.w3.org/2000/svg">
<path id="Pinteres" d="M20.7898 1.21037C19.9832 0.403675 19.0115 0.000250823 17.8753 0.000250823V0H4.12502C2.98881 0 2.01711 0.403524 1.2102 1.21022C0.403452 2.01707 0 2.98871 0 4.12484V17.8744C0 19.0105 0.403452 19.9822 1.2102 20.7887C2.01711 21.5956 2.98886 21.999 4.12507 21.999H6.74635C6.58386 20.529 6.61727 19.3161 6.84654 18.3615L8.25014 12.4321C8.02097 11.9641 7.90629 11.3866 7.90629 10.6993C7.90629 9.90686 8.10922 9.24073 8.51518 8.70136C8.92083 8.16173 9.41504 7.892 9.99749 7.892C10.4654 7.892 10.8259 8.04711 11.0788 8.35733C11.3317 8.6678 11.4584 9.05687 11.4584 9.52476C11.4584 9.82063 11.4059 10.1764 11.301 10.5916C11.1957 11.0072 11.0551 11.4941 10.8784 12.0527C10.7018 12.6113 10.5753 13.0527 10.4989 13.3773C10.3653 13.9503 10.475 14.4443 10.8283 14.8599C11.1816 15.2749 11.6447 15.483 12.2178 15.483C13.23 15.483 14.0582 14.9196 14.7031 13.7928C15.3476 12.6663 15.6696 11.3008 15.6696 9.69687C15.6696 8.46528 15.271 7.46254 14.4733 6.68925C13.6764 5.91581 12.5663 5.52905 11.1434 5.52905C9.54904 5.52905 8.25741 6.03761 7.269 7.0544C6.28064 8.07129 5.78643 9.29596 5.78643 10.7281C5.78643 11.5683 6.02528 12.2845 6.50268 12.8766C6.66493 13.0579 6.71755 13.2586 6.66021 13.4783C6.6124 13.6407 6.54081 13.9318 6.44534 14.3517C6.40706 14.4856 6.33793 14.5761 6.2376 14.624C6.13716 14.6718 6.02503 14.6718 5.90092 14.624C5.16571 14.3186 4.60924 13.7932 4.23218 13.0484C3.85506 12.3039 3.66648 11.4443 3.66648 10.4706C3.66648 9.84034 3.76918 9.20752 3.97451 8.57283C4.17985 7.93775 4.49737 7.32669 4.92701 6.73957C5.35664 6.15219 5.86976 5.62948 6.46666 5.17107C7.06336 4.71297 7.79401 4.34772 8.6581 4.07558C9.5221 3.80348 10.4509 3.66739 11.4436 3.66739C12.4561 3.66739 13.3965 3.84196 14.2656 4.1904C15.1344 4.5388 15.8626 5.00181 16.4501 5.57946C17.0372 6.15716 17.4981 6.82073 17.832 7.57034C18.1664 8.3197 18.3335 9.09565 18.3335 9.89758C18.3335 12.0556 17.7868 13.8387 16.6936 15.247C15.6003 16.6554 14.1894 17.3597 12.4612 17.3597C11.8878 17.3597 11.3511 17.226 10.8496 16.9587C10.3484 16.6914 9.99749 16.3716 9.79692 15.9991C9.37681 17.6701 9.12381 18.6677 9.03783 18.9923C8.81824 19.8326 8.30261 20.835 7.49099 22H17.8751C19.0113 22 19.983 21.5966 20.7896 20.7897C21.5965 19.9829 22 19.0112 22 17.8751V4.12494C22 2.98891 21.5965 2.01722 20.7898 1.21037Z" fill="#CB1F27"/>
</svg>
