<svg width="33" height="36" viewBox="0 0 33 36" fill="none" xmlns="http://www.w3.org/2000/svg">
<path fill-rule="evenodd" clip-rule="evenodd" d="M3.23584 33.3294L0.565186 36.0001V0.391357L3.23584 3.06201L5.90649 0.391357L8.57714 3.06201L11.2478 0.391357L13.9184 3.06201L16.5891 0.391357L19.2598 3.06201L21.9304 0.391357L24.6011 3.06201L27.2717 0.391357L29.9424 3.06201L32.613 0.391357V36.0001L29.9424 33.3294L27.2717 36.0001L24.6011 33.3294L21.9304 36.0001L19.2598 33.3294L16.5891 36.0001L13.9184 33.3294L11.2478 36.0001L8.57714 33.3294L5.90649 36.0001L3.23584 33.3294ZM27.2717 9.29353V12.8544H5.90649V9.29353H27.2717ZM5.90649 16.4153V19.9761H27.2717V16.4153H5.90649ZM5.90649 23.537V27.0979H27.2717V23.537H5.90649Z" fill="#6161E8"/>
</svg>
