<svg width="22" height="18" viewBox="0 0 22 18" fill="none" xmlns="http://www.w3.org/2000/svg">
<path id="twitter" d="M8.20747 18C7.25612 18 6.27691 17.923 5.29183 17.7686C3.55681 17.4965 1.80048 16.5892 1.30349 16.3175L0 15.6051L1.41124 15.1411C2.95391 14.6341 3.89233 14.3195 5.05399 13.8268C3.89082 13.2637 2.99436 12.2507 2.56283 10.9413L2.23453 9.94492L2.50375 9.98602C2.24846 9.7288 2.04687 9.46771 1.89061 9.23028C1.33487 8.38645 1.04064 7.35536 1.10325 6.47176L1.16501 5.60209L1.68584 5.80378C1.46613 5.38899 1.30735 4.94602 1.21403 4.48173C0.986595 3.34946 1.17693 2.14655 1.75012 1.09466L2.20381 0.262068L2.81057 0.990627C4.72955 3.2951 7.16012 4.66211 10.0449 5.0623C9.92705 4.25035 10.0153 3.46675 10.3076 2.76437C10.6478 1.94655 11.253 1.25306 12.0573 0.758736C12.9506 0.209885 14.0339 -0.0560678 15.1076 0.00987498C16.2468 0.0798448 17.281 0.506543 18.1025 1.24467C18.5036 1.14047 18.7992 1.02922 19.1987 0.878876C19.439 0.788436 19.7116 0.685746 20.0527 0.568291L21.3095 0.135384L20.4899 2.47543C20.5439 2.4709 20.5997 2.46704 20.6579 2.46452L22 2.40378L21.2068 3.48756C21.1613 3.54964 21.1497 3.56726 21.1336 3.59159C21.0696 3.6879 20.9901 3.80771 19.9013 5.26113C19.6287 5.62508 19.4926 6.09909 19.5179 6.5961C19.6144 8.48478 19.3826 10.1936 18.8286 11.6749C18.3045 13.0763 17.4925 14.2787 16.4153 15.2487C15.0823 16.4488 13.3825 17.2704 11.363 17.6906C10.3723 17.8966 9.30854 18 8.20747 18Z" fill="#1DA1F3"/>
</svg>
